<svg xmlns="http://www.w3.org/2000/svg" width="2400" height="1350" viewBox="0 0 2400 1350" role="img" aria-label="Luxury car front with glowing ID barcode">
  <defs>
    <linearGradient id="g0" x1="0" y1="0" x2="1" y2="1">
      <stop offset="0" stop-color="#05070c"/>
      <stop offset="1" stop-color="#0b1020"/>
    </linearGradient>
    <radialGradient id="goldGlow" cx="30%" cy="24%" r="70%">
      <stop offset="0" stop-color="rgba(212,175,55,.26)"/>
      <stop offset="0.55" stop-color="rgba(212,175,55,.08)"/>
      <stop offset="1" stop-color="rgba(212,175,55,0)"/>
    </radialGradient>
    <radialGradient id="blueGlow" cx="80%" cy="18%" r="70%">
      <stop offset="0" stop-color="rgba(255,210,160,.08)"/>
      <stop offset="1" stop-color="rgba(120,180,255,0)"/>
    </radialGradient>
    <filter id="blur" x="-20%" y="-20%" width="140%" height="140%">
      <feGaussianBlur stdDeviation="8"/>
    </filter>
  </defs>

  <rect width="2400" height="1350" fill="url(#g0)"/>
  <rect width="2400" height="1350" fill="url(#goldGlow)"/>
  <rect width="2400" height="1350" fill="url(#blueGlow)"/>

  <g opacity="0.8"><path d="M 506.6 346.3 Q 547.5 -2.7 1273.2 58.0" stroke="rgba(243,210,122,0.137)" stroke-width="1.79" fill="none"/><path d="M 2096.5 1269.8 Q 2496.5 830.4 2512.3 498.3" stroke="rgba(243,210,122,0.077)" stroke-width="1.02" fill="none"/><path d="M 2324.4 1302.4 Q 1685.2 832.7 923.3 56.6" stroke="rgba(243,210,122,0.138)" stroke-width="1.78" fill="none"/><path d="M 524.1 861.9 Q 1368.3 514.5 1697.6 -62.5" stroke="rgba(243,210,122,0.122)" stroke-width="1.47" fill="none"/><path d="M 585.2 975.5 Q 1214.7 529.0 2266.2 -33.4" stroke="rgba(243,210,122,0.079)" stroke-width="1.07" fill="none"/><path d="M -136.3 1059.7 Q 819.8 1313.1 2127.7 1346.8" stroke="rgba(243,210,122,0.126)" stroke-width="1.61" fill="none"/><path d="M 37.2 1081.5 Q 434.1 943.0 1181.3 594.8" stroke="rgba(243,210,122,0.067)" stroke-width="1.26" fill="none"/><path d="M 70.7 1429.7 Q 1184.9 1111.4 2122.3 888.9" stroke="rgba(243,210,122,0.115)" stroke-width="1.36" fill="none"/><path d="M 2421.6 764.6 Q 1518.7 941.2 1284.8 1162.0" stroke="rgba(243,210,122,0.079)" stroke-width="1.86" fill="none"/><path d="M 1318.1 149.9 Q 1371.9 483.0 2091.2 429.8" stroke="rgba(243,210,122,0.122)" stroke-width="1.89" fill="none"/><path d="M 2195.9 149.7 Q 2098.7 168.8 1830.4 -44.3" stroke="rgba(243,210,122,0.080)" stroke-width="1.82" fill="none"/><path d="M 1100.2 81.9 Q 1583.4 643.0 2363.5 1277.4" stroke="rgba(243,210,122,0.124)" stroke-width="2.09" fill="none"/><path d="M 933.3 602.3 Q 1578.2 725.3 1885.8 569.6" stroke="rgba(243,210,122,0.127)" stroke-width="2.00" fill="none"/><path d="M 1686.5 -19.9 Q 1452.4 161.9 1684.7 696.1" stroke="rgba(243,210,122,0.078)" stroke-width="1.28" fill="none"/></g>
  <g><circle cx="1241.1" cy="1110.9" r="2.6" fill="rgba(212,175,55,0.091)"/><circle cx="854.3" cy="1004.7" r="5.9" fill="rgba(212,175,55,0.051)"/><circle cx="977.9" cy="178.9" r="2.5" fill="rgba(212,175,55,0.065)"/><circle cx="1509.8" cy="650.4" r="3.2" fill="rgba(212,175,55,0.097)"/><circle cx="1122.3" cy="840.2" r="3.6" fill="rgba(212,175,55,0.104)"/><circle cx="365.6" cy="972.2" r="4.6" fill="rgba(212,175,55,0.087)"/><circle cx="1611.0" cy="1230.1" r="2.5" fill="rgba(212,175,55,0.105)"/><circle cx="1244.8" cy="1132.7" r="5.5" fill="rgba(212,175,55,0.132)"/><circle cx="2236.4" cy="962.7" r="2.4" fill="rgba(212,175,55,0.069)"/><circle cx="1033.0" cy="842.6" r="3.0" fill="rgba(212,175,55,0.058)"/><circle cx="2261.7" cy="279.5" r="5.8" fill="rgba(212,175,55,0.096)"/><circle cx="1953.6" cy="828.4" r="5.2" fill="rgba(212,175,55,0.073)"/><circle cx="1458.6" cy="40.5" r="5.6" fill="rgba(212,175,55,0.064)"/><circle cx="1272.0" cy="845.1" r="5.2" fill="rgba(212,175,55,0.105)"/><circle cx="1152.3" cy="1007.9" r="3.7" fill="rgba(212,175,55,0.092)"/><circle cx="55.7" cy="15.9" r="3.6" fill="rgba(212,175,55,0.101)"/><circle cx="1870.7" cy="162.8" r="2.1" fill="rgba(212,175,55,0.111)"/><circle cx="1547.5" cy="1147.3" r="4.9" fill="rgba(212,175,55,0.073)"/><circle cx="2337.0" cy="210.7" r="5.1" fill="rgba(212,175,55,0.057)"/><circle cx="689.4" cy="159.9" r="3.7" fill="rgba(212,175,55,0.103)"/><circle cx="259.4" cy="398.2" r="3.2" fill="rgba(212,175,55,0.140)"/><circle cx="1155.2" cy="672.7" r="3.6" fill="rgba(212,175,55,0.130)"/><circle cx="2327.8" cy="181.4" r="3.8" fill="rgba(212,175,55,0.135)"/><circle cx="980.3" cy="800.0" r="5.4" fill="rgba(212,175,55,0.077)"/><circle cx="185.7" cy="355.2" r="4.3" fill="rgba(212,175,55,0.113)"/><circle cx="831.3" cy="1050.9" r="5.2" fill="rgba(212,175,55,0.096)"/><circle cx="1850.9" cy="687.6" r="2.7" fill="rgba(212,175,55,0.126)"/><circle cx="1103.0" cy="1115.0" r="2.0" fill="rgba(212,175,55,0.101)"/><circle cx="1019.5" cy="104.9" r="5.0" fill="rgba(212,175,55,0.132)"/><circle cx="986.7" cy="155.6" r="5.6" fill="rgba(212,175,55,0.052)"/><circle cx="284.3" cy="1346.8" r="2.3" fill="rgba(212,175,55,0.098)"/><circle cx="839.8" cy="239.6" r="3.7" fill="rgba(212,175,55,0.066)"/><circle cx="27.5" cy="1002.2" r="2.5" fill="rgba(212,175,55,0.073)"/><circle cx="1903.0" cy="1330.9" r="4.0" fill="rgba(212,175,55,0.137)"/><circle cx="1051.0" cy="1073.5" r="4.4" fill="rgba(212,175,55,0.128)"/><circle cx="2299.5" cy="1239.1" r="5.4" fill="rgba(212,175,55,0.120)"/><circle cx="225.7" cy="475.2" r="5.1" fill="rgba(212,175,55,0.127)"/><circle cx="2341.0" cy="263.2" r="3.4" fill="rgba(212,175,55,0.095)"/></g>

  <g filter="url(#blur)" opacity="0.9">
    <circle cx="1752.0" cy="621.0" r="210" fill="rgba(255,255,255,.04)"/>
  </g>

  <g><circle cx="1752.0" cy="621.0" r="160" fill="none" stroke="rgba(212,175,55,0.180)" stroke-width="1.2"/><circle cx="1752.0" cy="621.0" r="215" fill="none" stroke="rgba(212,175,55,0.150)" stroke-width="1.2"/><circle cx="1752.0" cy="621.0" r="270" fill="none" stroke="rgba(212,175,55,0.120)" stroke-width="1.2"/><circle cx="1752.0" cy="621.0" r="325" fill="none" stroke="rgba(212,175,55,0.090)" stroke-width="1.2"/></g>

  <g>
    <rect x="1562.0" y="555.0" width="380" height="132" rx="26" fill="rgba(255,255,255,.05)" stroke="rgba(255,255,255,.10)"/>
    <text x="1752.0" y="613.0" text-anchor="middle" font-family="ui-sans-serif,system-ui" font-size="50" fill="rgba(245,247,255,.92)" letter-spacing="2">W3</text>
    <text x="1752.0" y="655.0" text-anchor="middle" font-family="ui-sans-serif,system-ui" font-size="22" fill="rgba(245,247,255,.60)" letter-spacing="1">w3.vin</text>
  </g>

  <g opacity="0.9">
    <circle cx="432.0" cy="1053.0" r="280" fill="rgba(212,175,55,.06)"/>
    <circle cx="432.0" cy="1053.0" r="279" fill="none" stroke="rgba(255,255,255,.06)"/>
  </g>
</svg>